# xmcd
#
# Track frame offsets: 
#        150
#        17255
#        37387
#        51654
#        63896
#        92473
#        116954
#        132524
#        149293
#        170838
#        192886
#        213552
#        241756
#        255694
#        271882
#        292507
#        305158
#        322351
#
# Disc length: 4601 seconds
#
# Revision: 0
# Processed by: cddbd v1.4PL0 Copyright (c) Steve Scherf et al.
# Submitted via: ExactAudioCopy v0.90b4
#
DISCID=1911f712
DTITLE=Van Morrison - Montreux 2003
DYEAR=2003
DGENRE=Celtic
TTITLE0=Freddie Freeloader
TTITLE1=Whining Boy Moan
TTITLE2=Jump, Jive and Wail
TTITLE3=When You're Smiling
TTITLE4=Moondance
TTITLE5=Raincheck
TTITLE6=Choppin' Wood
TTITLE7=Talk Is Cheap
TTITLE8=Goin' Down Geneva > Brand New Cadillac
TTITLE9=St. James Infirmary
TTITLE10=All Work And No Play
TTITLE11=Goldfish Bowl
TTITLE12=Precious Time
TTITLE13=Don't Start Crying Now
TTITLE14=Hoochie Coochie Man
TTITLE15=Baby What You Want Me To Do
TTITLE16=Brown Eyed Girl
TTITLE17=Gloria
EXTD=
EXTT0=
EXTT1=
EXTT2=
EXTT3=
EXTT4=
EXTT5=
EXTT6=
EXTT7=
EXTT8=
EXTT9=
EXTT10=
EXTT11=
EXTT12=
EXTT13=
EXTT14=
EXTT15=
EXTT16=
EXTT17=
PLAYORDER=
